<?xml version="1.0" encoding="UTF-8" standalone="no"?>
<!-- Created with Inkscape (http://www.inkscape.org/) -->

<svg
   version="1.1"
   id="svg2"
   width="1233.08"
   height="932.30664"
   viewBox="0 0 1233.08 932.30664"
   sodipodi:docname="logo_ru_blu_NCFU2_1_rgb.eps"
   xmlns:inkscape="http://www.inkscape.org/namespaces/inkscape"
   xmlns:sodipodi="http://sodipodi.sourceforge.net/DTD/sodipodi-0.dtd"
   xmlns="http://www.w3.org/2000/svg"
   xmlns:svg="http://www.w3.org/2000/svg">
  <defs
     id="defs6" />
  <sodipodi:namedview
     id="namedview4"
     pagecolor="#ffffff"
     bordercolor="#000000"
     borderopacity="0.25"
     inkscape:showpageshadow="2"
     inkscape:pageopacity="0.0"
     inkscape:pagecheckerboard="0"
     inkscape:deskcolor="#d1d1d1" />
  <g
     id="g8"
     inkscape:groupmode="layer"
     inkscape:label="ink_ext_XXXXXX"
     transform="matrix(1.3333333,0,0,-1.3333333,0,932.30667)">
    <g
       id="g10"
       transform="scale(0.1)">
      <path
         d="m 3200.78,0 c 237.08,-0.53125 471.9,116.758 611.4,265.641 L 3656.91,542.25 C 3582.74,431.051 3433.86,308.199 3222.66,296.711 2889.87,278.59 2624.99,540.508 2624.99,860.918 c 0,551.302 700.94,764.442 1019.09,336.632 l 153.58,273.53 c -136.8,142 -353,251.35 -586.46,250.57 C 2721.27,1720 2329.12,1351.05 2329.12,860.918 2329.12,370.801 2717.81,1.12891 3200.78,0"
         style="fill:#fff;fill-opacity:1;fill-rule:evenodd;stroke:none"
         id="path12" />
      <path
         d="m 5178.66,48.0391 343.01,0.0312 -503.49,880.6017 456.39,792.048 H 5128.01 L 4721,1008.83 l -298.12,2.38 -2.33,709.51 h -325.36 l 2.34,-1672.6497 h 325.35 V 722.559 l 369.64,0.851 386.14,-675.3709"
         style="fill:#fff;fill-opacity:1;fill-rule:nonzero;stroke:none"
         id="path14" />
      <path
         d="m 7608.88,874.941 c 0,503.739 -331.39,804.879 -919.38,837.719 h -298.99 c -588.02,-32.84 -921.89,-331.25 -921.89,-837.719 0,-503.699 333.87,-802.1207 921.89,-834.9488 h 298.99 c 587.99,27.3594 919.38,331.2498 919.38,834.9488 z M 6689.5,319.219 V 1430.69 c 393.66,-30.11 607.93,-216.28 607.93,-552.991 0,-336.738 -209.3,-525.629 -607.93,-558.48 z m -904.43,555.722 c 0,339.469 204.29,522.909 605.44,555.749 V 319.219 C 6004.32,354.82 5785.07,538.23 5785.07,874.941"
         style="fill:#fff;fill-opacity:1;fill-rule:nonzero;stroke:none"
         id="path16" />
      <path
         d="M 8916.82,1720.71 C 8752.87,1413.92 8612.43,1137.23 8428.87,822.898 L 7942.85,1720.73 H 7610.82 L 8258.65,522.832 c -71.4,-110.012 -152.26,-217.641 -296.57,-217.641 -30.67,0 -62.28,4.34 -95.83,11.918 L 8013.57,49.8594 c 191.99,-1.8203 360.64,73.1096 507.35,341.3596 l 727.21,1329.511 -331.31,-0.02"
         style="fill:#fff;fill-opacity:1;fill-rule:nonzero;stroke:none"
         id="path18" />
      <path
         d="m 63.2539,3598.92 c 393.0861,-476.83 933.5231,-789 1546.6261,-870.84 -19.38,-20.15 -35.2,-49.29 -50.75,-67.62 -469.09,-40.27 -893.017,59.41 -1295.622,305.68 -82.789,200.66 -156.36,414.07 -200.2541,632.78"
         style="fill:#fff;fill-opacity:1;fill-rule:evenodd;stroke:none"
         id="path20" />
      <path
         d="m 1787.28,2920.31 c -25.66,-23.29 -67.31,-64.86 -86.64,-88.24 C 982.523,2982.64 391.82,3421.85 9.29297,4046.67 -19.0664,4440.13 17.2188,4829.5 121.879,5210.01 266.25,4206.89 872.844,3364.88 1787.28,2920.31"
         style="fill:#fff;fill-opacity:1;fill-rule:evenodd;stroke:none"
         id="path22" />
      <path
         d="m 2078.1,3148.58 c -58.36,-38.1 -146.11,-96.14 -204.5,-148.6 C 913.863,3603.37 383.473,4579.97 306.379,5700.02 605.191,6284.3 866.184,6593.93 1351.85,6992.32 699.492,5542.94 1148.77,4029.55 2078.1,3148.58"
         style="fill:#fff;fill-opacity:1;fill-rule:evenodd;stroke:none"
         id="path24" />
      <path
         d="M 2820.54,6294.67 C 3554.96,5825.53 4579.88,4496.28 4101.11,3299.81 3719.02,2344.99 2940.28,2104.25 2671.85,1934.49 2403.43,1764.73 1878.21,1287.86 2072.64,550.57 c -562.22,240.442 -752.04,818.78 -567.79,1342.88 409.79,1165.69 1334.46,994.22 1597.17,2554.88 118.44,703.66 -132.25,1558.44 -281.48,1846.34"
         style="fill:#fff;fill-opacity:1;fill-rule:evenodd;stroke:none"
         id="path26" />
      <path
         d="m 382.035,2704.37 c 351.028,-191.23 720.435,-246.47 1108.105,-147.54 -11.31,-17.88 -36.84,-67 -49.02,-84.35 -271.76,-137.43 -557.444,-141.35 -858.518,-90.79 -79.055,112.29 -125.219,200.65 -200.567,322.68"
         style="fill:#fff;fill-opacity:1;fill-rule:evenodd;stroke:none"
         id="path28" />
      <path
         d="m 701.406,2212.73 c 224.09,-36.33 473.654,20.37 674.424,134.19 l -33.07,-89.04 c -126.21,-143.92 -331.01,-196.54 -500.494,-204.44 -61.442,48.48 -96.582,108.85 -140.86,159.29"
         style="fill:#2b47a3;fill-opacity:1;fill-rule:evenodd;stroke:none"
         id="path30" />
    </g>
  </g>
</svg>
